<?xml version="1.0" encoding="utf-8"?>
<!-- Generator: Adobe Illustrator 21.1.0, SVG Export Plug-In . SVG Version: 6.00 Build 0)  -->
<svg version="1.1" id="Layer_1" xmlns="http://www.w3.org/2000/svg" xmlns:xlink="http://www.w3.org/1999/xlink" x="0px" y="0px"
	 viewBox="0 0 35.4 35.2" style="enable-background:new 0 0 35.4 35.2;" xml:space="preserve">
<style type="text/css">
	.st0{fill:#AC7C32;}
</style>
<title>Vector Smart Object</title>
<path class="st0" d="M30.1,21.8c0-3-2.4-5.4-5.4-5.4c-1.6,0-3.2,0.7-4.2,2l-2.8,3.1l-2.8-3.1C13,16,9.6,15.7,7.3,17.6
	c-2.3,1.9-2.6,5.3-0.7,7.6c0.1,0.1,0.2,0.2,0.3,0.4l0,0l8.1,7.9l0,0c1.4,1.5,3.8,1.5,5.3,0.1c0,0,0.1-0.1,0.1-0.1l0,0l8.1-7.9
	C29.5,24.6,30.1,23.2,30.1,21.8z"/>
<circle class="st0" cx="17.7" cy="5.9" r="5.4"/>
</svg>
